<?xml version="1.0" encoding="UTF-8" standalone="no"?>
<svg width="89px" height="89px" viewBox="0 0 89 89" version="1.1" xmlns="http://www.w3.org/2000/svg" xmlns:xlink="http://www.w3.org/1999/xlink" xmlns:sketch="http://www.bohemiancoding.com/sketch/ns">
    <!-- Generator: Sketch 3.2.2 (9983) - http://www.bohemiancoding.com/sketch -->
    <title>instagram</title>
    <desc>Created with Sketch.</desc>
    <defs></defs>
    <g id="Page-1" stroke="none" stroke-width="1" fill="none" fill-rule="evenodd" sketch:type="MSPage">
        <g id="Landing" sketch:type="MSArtboardGroup" transform="translate(-662.000000, -856.000000)">
            <g id="instagram" sketch:type="MSLayerGroup" transform="translate(662.000000, 856.000000)">
                <rect id="Rectangle" sketch:type="MSShapeGroup" x="0" y="0" width="89" height="89"></rect>
                <circle id="Oval" stroke="#000000" stroke-width="2" sketch:type="MSShapeGroup" cx="44.5" cy="44.5" r="44.5"></circle>
                <path d="M56.9089466,24.2727273 L32.0910534,24.2727273 C27.781103,24.2727273 24.2727273,27.7787245 24.2727273,32.0910534 L24.2727273,56.9089466 C24.2727273,61.2212755 27.781103,64.7272727 32.0910534,64.7272727 L56.9089466,64.7272727 C61.218897,64.7272727 64.7272727,61.2212755 64.7272727,56.9089466 L64.7272727,32.0910534 C64.7272727,27.7787245 61.218897,24.2727273 56.9089466,24.2727273 L56.9089466,24.2727273 Z M59.1519285,28.9370831 L60.046267,28.932326 L60.046267,35.7897139 L53.2102861,35.811121 L53.1865005,28.953733 L59.1519285,28.9370831 L59.1519285,28.9370831 Z M38.7272353,40.3470346 C40.0211719,38.5536004 42.1238187,37.3785919 44.5,37.3785919 C46.8761813,37.3785919 48.9788281,38.5536004 50.2727647,40.3470346 C51.1171534,41.517286 51.6214081,42.949179 51.6214081,44.5 C51.6214081,48.4246237 48.4270023,51.6190295 44.5,51.6190295 C40.5753763,51.6190295 37.3809705,48.4246237 37.3809705,44.5 C37.3809705,42.949179 37.8852251,41.517286 38.7272353,40.3470346 L38.7272353,40.3470346 Z M60.7859991,56.9089466 C60.7859991,59.0472719 59.0472719,60.7859991 56.9089466,60.7859991 L32.0910534,60.7859991 C29.9527281,60.7859991 28.2140009,59.0472719 28.2140009,56.9089466 L28.2140009,40.3470346 L34.2555428,40.3470346 C33.7322597,41.6314569 33.4396968,43.0324286 33.4396968,44.5 C33.4396968,50.5986274 38.4013726,55.5626817 44.5,55.5626817 C50.6010059,55.5626817 55.5626817,50.5986274 55.5626817,44.5 C55.5626817,43.0324286 55.2653618,41.6314569 54.7468357,40.3470346 L60.7859991,40.3470346 L60.7859991,56.9089466 L60.7859991,56.9089466 Z" id="Shape" fill="#000000" sketch:type="MSShapeGroup"></path>
            </g>
        </g>
    </g>
</svg>