<?xml version="1.0" encoding="UTF-8" standalone="no"?>
<svg width="90px" height="90px" viewBox="0 0 90 90" version="1.1" xmlns="http://www.w3.org/2000/svg" xmlns:xlink="http://www.w3.org/1999/xlink" xmlns:sketch="http://www.bohemiancoding.com/sketch/ns">
    <!-- Generator: Sketch 3.2.2 (9983) - http://www.bohemiancoding.com/sketch -->
    <title>mail</title>
    <desc>Created with Sketch.</desc>
    <defs></defs>
    <g id="Page-1" stroke="none" stroke-width="1" fill="none" fill-rule="evenodd" sketch:type="MSPage">
        <g id="Landing" sketch:type="MSArtboardGroup" transform="translate(-982.000000, -557.000000)">
            <g id="mail" sketch:type="MSLayerGroup" transform="translate(982.000000, 557.000000)">
                <rect id="Rectangle" sketch:type="MSShapeGroup" x="0" y="0" width="90" height="90"></rect>
                <circle id="Oval" stroke="#FFFFFF" stroke-width="2" sketch:type="MSShapeGroup" cx="45" cy="45" r="45"></circle>
                <path d="M26.8190753,38.724377 C27.3883562,39.0961157 29.1042123,40.2004907 31.9669521,42.0366461 C34.8296918,43.8728014 37.0226712,45.286721 38.5461986,46.2781193 C38.7135616,46.3868165 39.0692466,46.6230404 39.6132534,46.9870762 C40.1572603,47.3513972 40.6094178,47.6461064 40.9691096,47.8706332 C41.3291096,48.09516 41.7643151,48.347075 42.2750342,48.6258077 C42.7857534,48.9045405 43.2671918,49.1139466 43.7190411,49.252885 C44.1711986,49.3926793 44.5897603,49.4620059 44.974726,49.4620059 L45,49.4620059 L45.025274,49.4620059 C45.4102397,49.4620059 45.8288014,49.3926793 46.2809589,49.252885 C46.7328082,49.1139466 47.2145548,48.9042552 47.7249658,48.6258077 C48.2353767,48.3467897 48.6705822,48.09516 49.0305822,47.8706332 C49.3905822,47.6461064 49.8424315,47.3513972 50.3864384,46.9870762 C50.9304452,46.6227551 51.2864384,46.3868165 51.4538014,46.2781193 C52.9936644,45.2864357 56.9114384,42.7684265 63.2058904,38.7238064 C64.4279795,37.9338259 65.4488014,36.980657 66.2692808,35.8648703 C67.0900685,34.7496541 67.5,33.5796614 67.5,32.3554627 C67.5,31.3326819 67.102089,30.4571131 66.3068836,29.7287563 C65.5116781,29.0003994 64.5697603,28.6363636 63.4820548,28.6363636 L26.517637,28.6363636 C25.2286644,28.6363636 24.2368151,29.0391995 23.542089,29.8448711 C22.847363,30.6508281 22.5,31.6582029 22.5,32.8667104 C22.5,33.8429882 22.9604795,34.9008602 23.8811301,36.0397558 C24.8017808,37.1786514 25.7813014,38.0736202 26.8190753,38.724377 Z M64.9886301,41.2112891 C59.4980137,44.6510848 55.3290411,47.3242943 52.4835616,49.2303468 C51.5293151,49.8811035 50.7550685,50.3889277 50.1605137,50.7526782 C49.5662671,51.1169993 48.7753767,51.488738 47.7875342,51.868465 C46.8,52.2481919 45.8793493,52.4379128 45.0255822,52.4379128 L45,52.4379128 L44.974726,52.4379128 C44.1209589,52.4379128 43.2,52.2481919 42.2124658,51.868465 C41.2249315,51.488738 40.4337329,51.1169993 39.8394863,50.7526782 C39.2452397,50.3889277 38.4709932,49.8811035 37.5167466,49.2303468 C35.2565753,47.6963183 31.0965411,45.0231089 25.0363356,41.2112891 C24.082089,40.6227266 23.2366438,39.9482904 22.5,39.1891217 L22.5,57.644252 C22.5,58.6673181 22.8932877,59.5426016 23.6801712,60.2709584 C24.4670548,60.9996006 25.4129795,61.3636364 26.5179452,61.3636364 L63.482363,61.3636364 C64.5870205,61.3636364 65.5329452,60.9996006 66.3198288,60.2709584 C67.1070205,59.5423163 67.5,58.6673181 67.5,57.644252 L67.5,39.1891217 C66.78,39.9325992 65.9431849,40.6070354 64.9886301,41.2112891 Z" id="Shape" fill="#FFFFFF" sketch:type="MSShapeGroup"></path>
            </g>
        </g>
    </g>
</svg>