<?xml version="1.0" encoding="UTF-8" standalone="no"?>
<svg width="90px" height="90px" viewBox="0 0 90 90" version="1.1" xmlns="http://www.w3.org/2000/svg" xmlns:xlink="http://www.w3.org/1999/xlink" xmlns:sketch="http://www.bohemiancoding.com/sketch/ns">
    <!-- Generator: Sketch 3.2.2 (9983) - http://www.bohemiancoding.com/sketch -->
    <title>twitter</title>
    <desc>Created with Sketch.</desc>
    <defs></defs>
    <g id="Page-1" stroke="none" stroke-width="1" fill="none" fill-rule="evenodd" sketch:type="MSPage">
        <g id="Landing" sketch:type="MSArtboardGroup" transform="translate(-687.000000, -557.000000)">
            <g id="twitter" sketch:type="MSLayerGroup" transform="translate(687.000000, 557.000000)">
                <rect id="Rectangle" sketch:type="MSShapeGroup" x="0" y="0" width="90" height="90"></rect>
                <circle id="Oval" stroke="#FFFFFF" stroke-width="2" sketch:type="MSShapeGroup" cx="45" cy="45" r="45"></circle>
                <path d="M62.4398502,34.4571783 C64.2601931,33.3084383 65.6569659,31.4869408 66.312491,29.3170985 C64.6081256,30.3834058 62.7247515,31.1545507 60.7153148,31.5720326 C59.1117995,29.7638307 56.8199827,28.6363636 54.2836047,28.6363636 C49.4175911,28.6363636 45.4743553,32.7978871 45.4743553,37.9299896 C45.4743553,38.6585886 45.5474715,39.3685738 45.6987466,40.0466495 C38.377035,39.6584179 31.8848149,35.9622405 27.5356577,30.3355416 C26.7767613,31.712966 26.3431062,33.3084383 26.3431062,35.0102754 C26.3431062,38.2331294 27.8987178,41.0783882 30.2636508,42.7483159 C28.8189742,42.7004517 27.4600202,42.2776516 26.2699899,41.5862803 L26.2699899,41.7006224 C26.2699899,46.2051725 29.3055756,49.9625097 33.3420977,50.8134282 C32.60085,51.0314761 31.8243049,51.1405 31.0175047,51.1405 C30.4502233,51.1405 29.8955482,51.0846585 29.3610431,50.9756346 C30.4804783,54.6664938 33.7354128,57.3575237 37.5929261,57.4293199 C34.5749892,59.9235749 30.7754646,61.4073641 26.6481775,61.4073641 C25.9371848,61.4073641 25.2337559,61.3674773 24.5454545,61.2797263 C28.4458291,63.9149147 33.0773664,65.4545455 38.0543149,65.4545455 C54.2659559,65.4545455 63.1256303,51.2920699 63.1256303,39.0095925 C63.1256303,38.6054062 63.1205878,38.203879 63.1029391,37.8076701 C64.8249532,36.4967237 66.322576,34.8587055 67.5,32.9946621 C65.9191759,33.7338975 64.219853,34.2338122 62.4398502,34.4571783 Z" id="Shape" fill="#FFFFFF" sketch:type="MSShapeGroup"></path>
            </g>
        </g>
    </g>
</svg>